<?xml version="1.0" encoding="UTF-8"?>
<svg id="Layer_1" data-name="Layer 1" xmlns="http://www.w3.org/2000/svg" viewBox="0 0 56 56">
  <defs>
    <style>
      .cls-1 {
        fill: #451d4a;
        stroke-width: 0px;
      }

      .cls-2 {
        fill: none;
        stroke: #451d4a;
        stroke-linecap: round;
        stroke-linejoin: round;
        stroke-width: 2px;
      }
    </style>
  </defs>
  <path class="cls-1" d="m31.69,13.78l6.4,6.4v9.05l-6.4,6.4-.33.32v8.12h-8.39v-8.12l-.33-.32-6.4-6.4v-9.05l6.4-6.4h9.05Zm0-1.95h-9.05c-.52,0-1.01.2-1.37.57l-6.4,6.4c-.36.36-.57.86-.57,1.37v9.05c0,.52.2,1.01.57,1.37l6.16,6.16v7.31c0,1.07.87,1.95,1.95,1.95h8.39c1.07,0,1.95-.87,1.95-1.95v-7.31l6.16-6.16c.36-.36.57-.86.57-1.37v-9.05c0-.52-.2-1.01-.57-1.37l-6.4-6.4c-.36-.36-.86-.57-1.37-.57h-.01Z"/>
  <path class="cls-1" d="m29.56,50.82h-4.78c-.55,0-1-.45-1-1s.45-1,1-1h4.78c.55,0,1,.45,1,1s-.45,1-1,1Z"/>
  <path class="cls-1" d="m32.49,50.82h-10.64c-.55,0-1-.45-1-1s.45-1,1-1h10.64c.55,0,1,.45,1,1s-.45,1-1,1Z"/>
  <path class="cls-1" d="m27.17,8.11c-.55,0-1-.45-1-1V2.33c0-.55.45-1,1-1s1,.45,1,1v4.78c0,.55-.45,1-1,1Z"/>
  <path class="cls-1" d="m14.86,13.21c-.26,0-.51-.1-.71-.29l-3.38-3.38c-.39-.39-.39-1.02,0-1.41.39-.39,1.02-.39,1.41,0l3.38,3.38c.39.39.39,1.02,0,1.41-.2.2-.45.29-.71.29Z"/>
  <path class="cls-1" d="m9.76,25.52h-4.78c-.55,0-1-.45-1-1s.45-1,1-1h4.78c.55,0,1,.45,1,1s-.45,1-1,1Z"/>
  <path class="cls-1" d="m49.36,25.52h-4.78c-.55,0-1-.45-1-1s.45-1,1-1h4.78c.55,0,1,.45,1,1s-.45,1-1,1Z"/>
  <path class="cls-1" d="m39.48,13.21c-.26,0-.51-.1-.71-.29-.39-.39-.39-1.02,0-1.41l3.38-3.38c.39-.39,1.02-.39,1.41,0,.39.39.39,1.02,0,1.41l-3.38,3.38c-.2.2-.45.29-.71.29Z"/>
  <path class="cls-2" d="m30.21,53.67h-6.1"/>
</svg>
