<?xml version="1.0" encoding="UTF-8"?>
<svg id="Layer_1" data-name="Layer 1" xmlns="http://www.w3.org/2000/svg" viewBox="0 0 56 56">
  <defs>
    <style>
      .cls-1 {
        fill: #451d4a;
        stroke-width: 0px;
      }
    </style>
  </defs>
  <path class="cls-1" d="m42.98,27.45h-2.74c-.41,0-.78-.25-.93-.63l-.64-1.63s-.1-.03-.14-.04c-.54-.16-1.06-.37-1.54-.6l-1.42.61c-.58.26-1.29.13-1.75-.33l-1.38-1.38c-.46-.46-.59-1.17-.33-1.76l.54-1.24-.02-.03c-.31-.57-.54-1.1-.72-1.61l-1.44-.57c-.59-.22-1-.82-1-1.47v-1.94c0-.65.41-1.25,1.02-1.48l1.25-.49s.03-.09.04-.14c.17-.54.37-1.06.6-1.54l-.62-1.42c-.26-.59-.13-1.28.33-1.75l1.38-1.38c.46-.47,1.16-.59,1.76-.33l1.24.54.06-.03c.55-.3,1.07-.52,1.58-.7l.57-1.44c.22-.59.82-1,1.47-1h1.94c.65,0,1.25.41,1.48,1.02l.49,1.25s.1.03.14.04c.54.16,1.05.36,1.54.6l1.42-.61c.58-.26,1.29-.13,1.75.33l1.38,1.38c.47.47.59,1.16.33,1.76l-.54,1.24.02.03c.31.57.54,1.1.72,1.61l1.44.57s.07.03.1.05c.54.26.9.82.9,1.43v1.94c0,.65-.41,1.25-1.02,1.48l-1.25.49s-.03.1-.04.14c-.16.54-.36,1.05-.6,1.53l.61,1.42c.26.59.13,1.29-.33,1.75l-1.38,1.38c-.46.46-1.17.59-1.76.33l-1.24-.54-.1.06c-.51.27-1.02.5-1.53.67l-.72,1.8c-.15.38-.52.63-.93.63Zm-2.06-2h1.39l.65-1.62c.12-.29.36-.5.65-.59l.25-.07c.43-.14.9-.34,1.35-.58l.4-.23c.28-.2.67-.25.99-.11l1.46.64.98-.98-.7-1.61c-.13-.29-.11-.63.06-.9l.11-.2c.21-.41.4-.88.55-1.38.03-.11.06-.21.08-.31.01-.05.03-.1.03-.14.06-.35.29-.64.62-.77l1.48-.58v-1.38l-1.63-.65c-.29-.11-.51-.36-.59-.65l-.07-.25c-.14-.43-.34-.9-.58-1.35l-.17-.29c-.04-.07-.06-.09-.08-.12-.2-.29-.24-.66-.1-.98l.64-1.46-.98-.98-1.61.7c-.29.13-.63.11-.9-.06l-.2-.11c-.41-.21-.88-.4-1.38-.55-.1-.03-.2-.06-.29-.08-.08-.02-.12-.03-.16-.04-.35-.06-.64-.29-.77-.62l-.58-1.48h-1.38l-.65,1.63c-.11.29-.36.51-.66.59l-.25.07c-.43.14-.89.33-1.35.58l-.29.16c-.06.03-.09.06-.12.08-.29.2-.66.24-.98.1l-1.46-.64-.98.98.7,1.61c.13.29.11.63-.06.9l-.11.2c-.21.41-.4.88-.55,1.38-.03.09-.05.19-.08.28-.02.09-.03.13-.04.18-.06.34-.29.63-.62.76l-1.48.58v1.38l1.63.65c.29.11.51.36.59.65l.07.25c.14.43.34.9.58,1.35l.17.29c.03.06.06.09.08.12.2.29.24.66.1.98l-.64,1.46.98.98,1.61-.7c.29-.13.63-.11.9.06l.2.11c.4.21.87.4,1.38.55.1.03.2.06.29.08.08.02.12.03.16.04.35.06.64.29.77.62l.58,1.48Zm-6.15-2.13s0,0,0,0h0Zm13.08-.23s0,0,0,0h0Zm.45-.09h0s0,0,0,0Zm-14.36-.52h0s0,0,0,0Zm15.2-.31s0,0,0,0h0Zm-15.29-.15h0s0,0,0,0Zm-2.65-5.66h.02s0,0-.02,0Zm20.33-.44s0,0-.01,0h.01Zm-20.31-.73h0s0,0,0,0Zm20.32-.44s0,0,0,0c0,0,0,0,0,0Zm-17.94-5.82h0s0,0,0,0Zm15.2-.31s0,0,0,0h0Zm-14.36-.51h0s0,0,0,0Zm.46-.09h0s0,0,0,0Zm13.08-.24h0s0,0,0,0Zm-6.26-2.39s0,0,0,0h0Zm-1.17-.02v.02s0-.01,0-.02Zm.8,14.64c-.09,0-.18,0-.28,0,0,0,0,0,0,0-2.46-.17-4.32-2.3-4.16-4.75.17-2.41,2.35-4.3,4.74-4.15,2.46.17,4.33,2.3,4.16,4.75-.16,2.31-2.17,4.16-4.47,4.16Zm-.15-2c1.35.1,2.53-.96,2.62-2.29.09-1.35-.94-2.53-2.3-2.62-1.32-.07-2.52.96-2.62,2.29-.09,1.35.94,2.53,2.3,2.62Z"/>
  <path class="cls-1" d="m15.37,50.71c-.14,0-.29-.03-.42-.09l-3.61-1.69c-.37-.17-.6-.56-.57-.97l.17-2.76c-.1-.08-.2-.17-.29-.25-.65-.57-1.24-1.2-1.76-1.87l-2.46-.07c-.76-.03-1.44-.52-1.69-1.23l-.96-2.64c-.26-.72-.05-1.51.52-2.01l1.65-1.45c-.01-.12-.02-.25-.03-.37-.05-.89-.03-1.75.07-2.58l-1.69-1.79c-.52-.55-.65-1.35-.33-2.04l1.2-2.56c.34-.7,1.05-1.12,1.8-1.06l2.18.14c.07-.08.14-.17.21-.25.63-.7,1.25-1.29,1.91-1.81l.07-2.46c.03-.76.52-1.44,1.23-1.69l2.65-.96c.72-.26,1.51-.05,2.01.52l1.45,1.65c.12-.01.24-.02.36-.03.89-.05,1.75-.03,2.58.07l1.79-1.69c.55-.52,1.35-.65,2.05-.33l2.56,1.2c.69.32,1.12,1.04,1.06,1.79l-.14,2.18c.1.08.2.17.29.25.65.56,1.24,1.19,1.77,1.87l2.46.07c.76.03,1.44.52,1.69,1.23l.96,2.65c.26.72.05,1.51-.52,2.01l-1.65,1.45c0,.1.02.2.02.3.06.95.03,1.81-.07,2.64l1.69,1.79s.06.07.09.11c.44.54.54,1.29.24,1.93l-1.2,2.56c-.31.68-1,1.12-1.79,1.06l-2.18-.14c-.08.1-.16.19-.23.28-.61.68-1.23,1.27-1.88,1.78l-.07,2.46c-.03.76-.52,1.44-1.23,1.69l-2.64.96c-.72.26-1.51.05-2.01-.52l-1.45-1.65c-.1,0-.2.02-.3.02-.95.06-1.81.03-2.64-.07l-2.21,2.08c-.19.18-.44.27-.69.27Zm6.24-4.37c.29,0,.56.12.75.34l1.73,1.96,2.46-.89.08-2.85c0-.31.17-.61.42-.79l.1-.07c.05-.04.11-.07.16-.11.6-.46,1.16-.98,1.67-1.56.11-.13.21-.25.3-.36l.19-.24c.2-.27.52-.42.87-.41l2.61.16,1.11-2.37-1.95-2.07c-.21-.22-.31-.53-.26-.84l.06-.36c.09-.73.12-1.49.07-2.25-.02-.21-.03-.35-.04-.49l-.04-.31c-.04-.33.08-.65.33-.87l1.96-1.73-.89-2.46-2.85-.08c-.31,0-.61-.17-.79-.42l-.06-.09c-.04-.05-.07-.11-.12-.16-.48-.62-1-1.18-1.56-1.66-.13-.11-.25-.22-.37-.31-.08-.06-.16-.12-.24-.18-.27-.2-.43-.53-.41-.87l.16-2.61-2.37-1.11-2.07,1.95c-.22.21-.53.31-.83.26l-.19-.03s-.09-.02-.13-.02c-.76-.1-1.53-.12-2.29-.08-.18.01-.34.02-.49.04l-.31.04c-.33.03-.65-.09-.87-.33l-1.73-1.96-2.46.89-.08,2.85c0,.31-.17.61-.42.79l-.09.06c-.05.04-.11.07-.16.12-.6.47-1.16.99-1.67,1.56-.12.14-.22.26-.31.37-.06.08-.12.15-.18.24-.2.28-.53.43-.87.41l-2.61-.17-1.11,2.37,1.95,2.07c.21.22.31.53.26.83l-.06.37c-.09.72-.12,1.48-.07,2.24.01.18.02.34.04.49l.04.32c.04.32-.09.65-.33.86l-1.96,1.73.89,2.46,2.85.08c.3,0,.59.16.77.4l.11.16s.05.08.08.11c.48.62,1,1.18,1.55,1.67.12.11.25.21.37.31l.24.19c.27.2.43.53.41.87l-.17,2.61,2.37,1.11,2.07-1.95c.22-.21.53-.31.83-.26l.19.03s.09.02.13.02c.77.1,1.53.12,2.29.08.21-.02.36-.03.49-.04l.32-.04s.07,0,.11,0Zm5.03,1.38s0,0,0,0h0Zm6.26-6.09s0,0,0,0h0Zm.15-.09h0,0Zm-26.43-.45h0s0,0,0,0Zm-.86-11.55h0,0Zm27.51-1.85s0,0,0,0h0Zm-26.43-.44h0,0Zm20.33-5.81s0,0,0,0h0Zm-.09-.15h0s0,0,0,0Zm-13.84-.21h0s0,0,0,0Zm11.54-.86h0s0,0,0,0Zm-4.9,20.18c-.97,0-1.95-.23-2.84-.72h0c-1.41-.77-2.44-2.05-2.89-3.6-.45-1.55-.27-3.18.5-4.59,1.57-2.85,5.31-3.94,8.17-2.38,1.41.78,2.44,2.06,2.89,3.6.45,1.55.27,3.17-.51,4.59-1.08,1.97-3.19,3.09-5.34,3.09Zm.1-10.01c-1.43,0-2.84.75-3.56,2.07-.52.94-.64,2.03-.34,3.07.3,1.03.99,1.89,1.93,2.4h0c1.91,1.05,4.41.32,5.46-1.58.52-.94.64-2.03.34-3.06s-.99-1.89-1.93-2.41c-.59-.33-1.25-.48-1.89-.48Z"/>
</svg>
