<?xml version="1.0" encoding="UTF-8"?>
<svg id="Layer_1" data-name="Layer 1" xmlns="http://www.w3.org/2000/svg" xmlns:xlink="http://www.w3.org/1999/xlink" viewBox="0 0 56 56">
  <defs>
    <style>
      .cls-1 {
        fill: #451d4a;
      }

      .cls-1, .cls-2 {
        stroke-width: 0px;
      }

      .cls-2 {
        fill: none;
      }

      .cls-3 {
        clip-path: url(#clippath);
      }
    </style>
    <clipPath id="clippath">
      <rect class="cls-2" x="5" y="5" width="45.05" height="45.05"/>
    </clipPath>
  </defs>
  <g class="cls-3">
    <g>
      <path class="cls-1" d="m27.52,50.05H7.8c-.53,0-.84-.28-.96-.54-.23-.56.13-1.15.75-1.2h5.07c.21,0,.26-.06.26-.26,0-1.15-.06-2.29.06-3.42,0-.13-.04-.19-.17-.19h-6.78c-.53,0-.83-.21-.99-.64-.04-.11-.04-.21-.04-.32,0-.92-.02-1.84,0-2.74.06-1.5.58-2.82,1.58-3.92.96-1.07,2.18-1.67,3.57-1.97.77-.17,1.52-.36,2.27-.54.15-.04.21-.11.23-.28.06-.53-.09-.86-.56-1.22-1.45-1.07-2.14-2.55-2.16-4.35-.02-1.31-.04-2.61,0-3.92.08-2.37,1.24-4.05,3.4-5.03.6-.26,1.24-.39,1.88-.41.83,0,1.63-.02,2.44.23.88.28,1.65.73,2.29,1.39.17.17.19.15.26-.06.81-2.25,2.35-3.83,4.56-4.71,3.7-1.45,8.02.28,9.72,3.89.13.28.26.54.34.84.06.17.11.21.24.06.75-.79,1.69-1.3,2.74-1.52.88-.19,1.78-.19,2.68-.04,1.3.21,2.37.81,3.23,1.78.84.96,1.33,2.1,1.37,3.38.04,1.41.04,2.82,0,4.22-.06,1.9-.88,3.4-2.46,4.49-.19.13-.3.26-.26.49v.08c0,.81-.11.58.66.79,1.03.28,2.08.41,3.08.81,1.13.43,2.05,1.15,2.76,2.14.64.88.98,1.88,1.13,2.95.04.21.02.43.02.66v2.48c0,.66-.36,1.01-1.01,1.01h-6.66q-.32,0-.28.3c.04.38.04.77.06,1.15,0,.79-.04,1.6.04,2.38.79.06,1.6,0,2.38.02h2.76c.47,0,.81.24.92.66.15.51-.23,1.05-.75,1.11h-19.95l.04.02Zm-5.97-23.26v.94c0,.81.15,1.58.47,2.33,1.28,3.02,4.73,4.45,7.77,3.21,2.25-.92,3.7-3.06,3.72-5.54v-2.27c0-.3,0-.32-.3-.3-.9,0-1.75-.21-2.52-.71-.53-.34-.96-.79-1.3-1.31-.11-.17-.19-.17-.34-.06-.26.19-.56.38-.84.54-1.37.79-2.83,1.28-4.41,1.46-.68.08-1.35.08-2.03.08-.17,0-.23.06-.23.23v1.41Zm3.79,21.44s-.11-.13-.17-.19c-2.42-2.42-4.84-4.84-7.26-7.26q-.58-.58-1.2,0c-1.35,1.31-2.01,2.93-2.03,4.81v2.42c0,.23.08.28.28.28h10.12c.08,0,.17.04.26-.06Zm4.41.04h10.42c.17,0,.23-.06.23-.23v-2.57c0-.53-.06-1.07-.21-1.58-.38-1.41-1.11-2.57-2.25-3.47-.17-.13-.26-.15-.41,0-2.53,2.53-5.07,5.07-7.6,7.62-.06.06-.11.09-.15.21l-.02.02Zm-2.25-31.08c-.71,0-1.39.13-2.06.38-2.29.83-3.92,3.17-3.89,5.61,0,.17.04.23.21.23,1.13,0,2.25-.06,3.34-.36,1.33-.38,2.53-1.01,3.59-1.9.45-.38.84-.79,1.22-1.22.19-.21.39-.38.69-.39.39-.02.68.15.84.47.19.34.11.69-.13.98-.19.23-.39.45-.58.68-.08.08-.11.15-.04.26.58.96,1.39,1.52,2.55,1.5.21,0,.26-.06.26-.26,0-.69-.13-1.35-.36-1.99-.81-2.33-3.19-4-5.65-3.96v-.02Zm15.86,10.49v-.88c0-.19-.06-.24-.24-.24-.69-.04-1.39-.13-2.05-.34-.54-.17-1.07-.38-1.58-.64-.13-.08-.24-.08-.38,0-.51.26-1.03.49-1.58.64-.68.21-1.35.3-2.05.34-.19,0-.23.08-.23.26v1.5c0,.41.04.83.17,1.22.38,1.2,1.13,2.06,2.33,2.44,1.56.49,3.08.39,4.37-.75.64-.56,1.01-1.3,1.15-2.14.08-.45.08-.92.08-1.37v-.04Zm-23.58,0v-.88c0-.19-.06-.24-.24-.24-.69-.04-1.39-.13-2.05-.34-.54-.17-1.07-.38-1.58-.64-.13-.08-.24-.06-.38,0-.26.13-.54.26-.83.39-.9.36-1.84.54-2.8.58-.19,0-.24.08-.23.24v1.48c0,.43.06.84.17,1.24.34,1.13,1.05,1.97,2.12,2.37,1.6.58,3.19.51,4.56-.68.64-.56,1.03-1.28,1.16-2.12.08-.47.08-.94.08-1.41Zm25.15,14.98h3.08c.21,0,.28-.04.28-.26v-1.3c0-1.03-.24-1.99-.88-2.83-.49-.66-1.13-1.15-1.9-1.43-1.01-.36-2.08-.54-3.12-.81-.17-.04-.23,0-.28.17-.39,1.56-.81,3.1-1.2,4.64-.04.15-.04.3.06.45.23.36.41.73.56,1.13.06.19.17.24.36.24h3.04Zm-34.86,0h3.08c.19,0,.28-.04.36-.23.15-.41.34-.79.56-1.15.09-.13.09-.28.06-.43-.41-1.56-.81-3.12-1.2-4.69-.04-.17-.11-.17-.24-.13-.98.24-1.95.41-2.91.73-1.67.56-2.63,1.75-2.95,3.45-.13.73-.04,1.46-.08,2.2,0,.19.06.24.24.24h3.1-.02Zm19.63-6.34v-.92c0-.21-.08-.23-.24-.19-.39.09-.79.19-1.2.23-.92.06-1.84.02-2.74-.23-.15-.04-.21,0-.23.15-.06,1.09.07,2.14.38,3.19.36,1.2.64,2.42.94,3.62.26,1.05.53,2.08.81,3.13,0,.06.02.11.09.11.06,0,.06-.06.08-.11.26-1.03.53-2.06.79-3.1.3-1.2.62-2.4.92-3.6.19-.79.51-1.56.39-2.29h.02Zm-13.98-15.49c-1.35-.04-2.48.41-3.3,1.52-.51.68-.71,1.45-.75,2.27,0,.11.02.19.15.17.3-.04.6-.04.88-.09.83-.15,1.63-.43,2.35-.9.45-.28.86-.28,1.31,0,.96.6,2.03.9,3.15.98.21,0,.24-.06.23-.23-.04-.36-.06-.73-.19-1.09-.3-.92-.86-1.63-1.69-2.12-.68-.39-1.39-.53-2.16-.51h.02Zm23.58,0c-1.33-.04-2.46.41-3.3,1.5-.51.68-.73,1.45-.75,2.27,0,.11.02.19.15.17.3-.04.6-.04.88-.09.83-.15,1.63-.43,2.35-.9.45-.28.86-.28,1.31,0,.96.6,2.03.9,3.15.98.21,0,.24-.06.23-.23-.04-.36-.08-.73-.19-1.09-.3-.92-.86-1.63-1.69-2.12-.68-.39-1.39-.53-2.16-.51l.02.02Zm-13.48,25.32c-.13-.53-.26-1.01-.39-1.52-.28-1.09-.56-2.18-.84-3.27-.24-.98-.51-1.93-.73-2.91-.06-.21-.15-.24-.34-.19-1.41.36-2.82.69-4.22,1.03-.08.02-.19.02-.23.11-.04.09.08.15.13.21,2.12,2.12,4.26,4.26,6.38,6.38.06.06.11.13.23.17l.02-.02Zm3.38,0c.11,0,.17-.08.23-.13,2.14-2.14,4.26-4.26,6.4-6.4.19-.19.17-.23-.08-.3-1.43-.36-2.87-.69-4.3-1.05-.17-.04-.23,0-.28.17-.21.86-.45,1.75-.68,2.61-.28,1.09-.56,2.2-.84,3.28-.15.6-.3,1.2-.47,1.82h.02Zm-5.65-11.15v-.28c.04-.24-.08-.39-.28-.53-.26-.17-.53-.34-.75-.54-.68-.58-1.24-1.26-1.69-2.03-.13-.24-.15-.24-.3,0-.32.47-.68.92-1.16,1.2-.51.28-.6.68-.56,1.2,0,.17.08.24.23.28.28.06.56.13.84.21.69.17,1.41.32,2.08.53.49.15.96.32,1.41.58.15.09.21.06.21-.11v-.45l-.02-.06Zm7.92,0v.45c0,.19.06.23.23.13.51-.3,1.05-.51,1.63-.64.88-.23,1.78-.43,2.67-.64.17-.04.24-.11.24-.3v-.51c0-.19-.06-.3-.21-.39-.58-.38-1.09-.84-1.48-1.41q-.19-.26-.36.02c-.58.96-1.31,1.8-2.25,2.4-.38.23-.53.51-.43.92l-.04-.04Zm6.49-.58c0,.17,0,.36.04.51.32,1.26.64,2.53.98,3.79.06.21.08.41.28.54.17.11.21.13.26-.08.28-1.11.56-2.22.84-3.3.15-.58.32-1.18.26-1.8,0-.13-.02-.23-.21-.19-.66.11-1.31.08-1.97.06-.49-.02-.49-.04-.49.49v-.02Zm-20.93,0c0-.17.08-.38-.04-.51-.11-.13-.3.04-.47.02h-.02c-.64,0-1.3.06-1.93-.06-.09,0-.19-.02-.19.11,0,.34-.04.68.04.99.34,1.35.69,2.68,1.03,4.04.04.11.04.32.13.32.15,0,.28-.15.36-.32,0-.04,0-.08.02-.11.24-.98.53-1.95.75-2.93.13-.53.36-1.03.3-1.58l.02.02Zm19.86,3.32v-.06c-.13-.53-.28-1.03-.41-1.56-.04-.15-.11-.13-.23-.11-.56.13-1.15.26-1.71.41-.41.11-.84.19-1.24.34-.04,0-.11,0-.09.08,0,.06.06.08.09.08s.08,0,.11.02c.83.21,1.63.39,2.46.6.28.08.54.17.83.26.08.02.17.08.19-.04v-.02Zm-18.68.06s.08-.02.11-.04c.34-.11.68-.23,1.03-.3.75-.19,1.52-.36,2.27-.54.06,0,.13-.02.13-.09s-.07-.06-.13-.08c-.98-.3-1.99-.49-2.97-.75-.09-.02-.13.02-.17.11-.13.53-.26,1.05-.41,1.56-.02.08-.02.15.11.13h.02Z"/>
      <path class="cls-1" d="m33.06,12.96c0-.26.11-.49.3-.68,1.11-1.13,2.23-2.23,3.34-3.34.47-.47,1.13-.39,1.43.13.21.36.13.77-.23,1.15-.84.84-1.67,1.67-2.52,2.52-.26.26-.53.54-.79.79-.47.45-1.11.38-1.43-.13-.08-.13-.11-.26-.11-.43Z"/>
      <path class="cls-1" d="m17.84,8.77c.23,0,.45.11.62.3,1.05,1.05,2.12,2.1,3.17,3.15.26.26.36.58.24.94-.11.34-.36.53-.69.58-.36.06-.62-.11-.84-.34-1.01-1.01-2.05-2.05-3.06-3.06-.15-.15-.28-.34-.32-.56-.09-.53.3-1.01.9-1.01h-.02Z"/>
      <path class="cls-1" d="m26.64,7.74v-1.8c0-.56.43-.98.94-.94.45.04.81.43.81.96v3.6c0,.54-.39.96-.88.96s-.86-.41-.86-.96v-1.82Z"/>
      <path class="cls-1" d="m28.41,12.71c0,.47-.41.86-.88.86s-.88-.41-.88-.88.41-.84.88-.84.86.39.86.86h.02Z"/>
    </g>
  </g>
</svg>
