<?xml version="1.0" encoding="UTF-8"?>
<svg id="Layer_1" data-name="Layer 1" xmlns="http://www.w3.org/2000/svg" viewBox="0 0 56 56">
  <defs>
    <style>
      .cls-1 {
        fill: #451d4a;
        stroke-width: 0px;
      }
    </style>
  </defs>
  <path class="cls-1" d="m45.09,50.67c-.17,0-.35-.05-.51-.14l-3.88-2.3c-.12-.07-.22-.16-.3-.27l-9.08-12.44-1.31-1.27c-.4-.38-.41-1.02-.02-1.41.38-.4,1.02-.41,1.41-.02l1.37,1.33s.08.08.11.13l9.01,12.34,3.04,1.8,4.04-4.04-1.8-3.04-12.34-9.02s-.07-.06-.11-.09l-1.64-1.58c-.4-.38-.41-1.02-.02-1.41.38-.4,1.02-.41,1.41-.02l1.59,1.53,12.46,9.1c.11.08.2.18.27.3l2.3,3.88c.23.39.17.89-.15,1.22l-5.13,5.13c-.19.19-.45.29-.71.29Z"/>
  <path class="cls-1" d="m19.97,24.11c-.25,0-.5-.09-.7-.28l-6.87-6.66-2.46-.93c-.2-.07-.37-.21-.48-.39L3.83,7.29c-.26-.4-.21-.92.13-1.26l2.07-2.07c.34-.34.86-.39,1.26-.13l8.56,5.64c.18.12.31.28.39.48l.92,2.44,6.82,6.62c.4.38.41,1.02.02,1.41-.38.4-1.02.41-1.41.02l-6.98-6.78c-.1-.1-.19-.23-.24-.36l-.89-2.35-7.61-5.01-.92.92,5.01,7.61,2.35.89c.13.05.24.12.34.22l7.02,6.81c.4.38.41,1.02.02,1.41-.2.2-.46.3-.72.3Z"/>
  <path class="cls-1" d="m12,50.67c-.75,0-1.42-.44-1.72-1.13-.3-.7-.15-1.51.38-2.05l4.4-4.5-.73-2.89-3-.73-4.39,4.49c-.53.55-1.34.72-2.05.43-.71-.29-1.17-.96-1.17-1.72l-.06-4.97c0-.26.1-.52.28-.71l5-5.12c.19-.19.44-.3.7-.3l4.67-.05,15.85-16.58-.09-4.81c0-.18.04-.35.12-.51.05-.12.11-.23.2-.31l4.88-5.05c.12-.13.27-.22.44-.27.12-.05.24-.08.36-.08l4.87-.07c.21.01.4.02.57.08.64.15,1.16.64,1.35,1.28.2.66.03,1.35-.45,1.85l-4.4,4.5.74,2.9,3.01.71,4.33-4.53c.49-.51,1.18-.7,1.85-.51.65.18,1.15.68,1.32,1.32.06.18.09.37.09.57l.09,4.86c0,.18-.04.35-.12.5-.05.12-.12.23-.2.32l-4.88,5.05c-.13.13-.29.23-.46.27-.11.05-.23.08-.35.08l-4.68.07-15.83,16.56.06,4.91c0,.27-.1.52-.28.71l-4.99,5.1c-.19.19-.44.3-.7.3l-4.98.05h-.03Zm0-2h0,0Zm-.99-11.42c.08,0,.16,0,.24.03l4.14,1.01c.36.09.64.37.73.73l1.01,4.02c.08.34-.01.69-.25.94l-4.58,4.68,4.27-.05,4.41-4.51-.06-4.9c0-.26.1-.51.28-.7l16.4-17.16c.18-.19.43-.3.7-.31l4.75-.08,4.39-4.55-.08-4.33-4.55,4.76c-.24.25-.6.35-.94.27l-4.16-.99c-.36-.09-.63-.36-.73-.72l-1.03-4.03c-.08-.33,0-.68.25-.93l.25-.26,4.36-4.46-1.25.04-3.08.03-4.39,4.55.09,4.88c0,.26-.1.51-.28.7l-16.42,17.18c-.19.19-.44.31-.71.31l-4.67.05-4.42,4.52.05,4.27,4.58-4.69c.19-.19.45-.3.71-.3Zm-5.29,5.28h0s0,0,0,0Z"/>
</svg>
