<svg width="24" height="24" viewBox="0 0 24 24" fill="none" xmlns="http://www.w3.org/2000/svg">
  <path d="M12.4777 3.00026C10.0966 2.98123 7.74941 4.01316 6.12116 5.90151C4.2455 8.08167 3.61111 10.6086 4.22858 13.4253C4.58806 15.0662 5.4043 16.464 6.62232 17.6207C7.10445 18.0774 7.23133 18.604 7.04101 19.232C6.89722 19.7015 6.78092 20.1815 6.65827 20.6573C6.64135 20.7249 6.58426 20.818 6.66673 20.873C6.73228 20.9153 6.7936 20.8434 6.8507 20.8116C7.46394 20.4585 8.0814 20.1096 8.69041 19.7459C9.09853 19.5027 9.51722 19.4689 9.96764 19.6063C11.5811 20.0969 13.203 20.1244 14.8291 19.6571C19.4496 18.3312 22.0526 13.4676 20.5809 8.90003C19.4474 5.37708 16.2269 3.03409 12.4756 3.00237L12.4777 3.00026Z" stroke="#451D4A" stroke-width="1.5" stroke-linecap="round" stroke-linejoin="round"/>
  <path d="M8.07683 12.8142C7.32826 12.8163 6.73828 12.2348 6.73828 11.4947C6.73828 10.7673 7.35152 10.1519 8.07472 10.1583C8.78945 10.1625 9.39 10.763 9.39846 11.4778C9.40692 12.22 8.82117 12.8121 8.07683 12.8142Z" fill="#451D4A"/>
  <path d="M16.9458 12.8142C16.1994 12.8163 15.6094 12.2306 15.6094 11.4905C15.6094 10.7609 16.2205 10.1519 16.9458 10.1561C17.6627 10.1604 18.2611 10.7567 18.2674 11.4757C18.2759 12.2179 17.688 12.81 16.9458 12.8142Z" fill="#451D4A"/>
  <path d="M12.484 12.8142C11.7481 12.8099 11.1645 12.2094 11.1729 11.4672C11.1814 10.7566 11.7883 10.1624 12.5073 10.1582C13.2283 10.1561 13.8374 10.7736 13.831 11.5031C13.8247 12.2432 13.2347 12.8184 12.484 12.8142Z" fill="#451D4A"/>
</svg>
