<svg xmlns="http://www.w3.org/2000/svg" width="659" height="285" viewBox="0 0 659 285">
  <g fill="none" fill-rule="evenodd" transform="translate(6 3)">
    <polygon fill="#008D88" points="82.027 .929 278.326 .929 196.303 114.631 .038 114.5"/>
    <polygon stroke="#FEFEFE" stroke-width="6" points="82.027 .929 278.326 .929 196.303 114.631 .038 114.5"/>
    <polygon fill="#008D88" points="265.299 26.511 461.597 26.511 379.574 140.219 183.31 140.083"/>
    <polygon stroke="#FEFEFE" stroke-width="6" points="265.299 26.511 461.597 26.511 379.574 140.219 183.31 140.083"/>
    <polygon fill="#008D88" points="450.285 50.995 368.296 164.567 564.56 164.709 646.578 50.995"/>
    <polygon stroke="#FEFEFE" stroke-width="6" points="450.285 51.001 646.583 51.001 564.56 164.703 368.296 164.567"/>
    <g transform="translate(80.579 17.336)">
      <path fill="#002E78" d="M91.1632211,2.507896 L81.9604842,2.428376 C80.5962737,4.399336 79.0785895,6.120376 78.1691158,6.194216 C75.7419579,6.398696 74.0253263,4.785576 70.4272211,3.388296 C66.8234316,1.996696 61.8213263,0.979976 53.3518526,0.610776 C25.7379579,-0.621784 0.244273684,17.003256 0.4148,41.023976 C0.585326316,65.118536 19.7070105,76.995416 45.3712211,79.579816 C52.5333263,80.301176 64.0324842,78.443816 73.7865895,72.519576 C79.3002737,70.980296 85.5017474,77.864456 85.5017474,77.864456 L95.4889053,77.864456 C95.4889053,71.315416 94.6305895,54.281096 96.3529053,51.867096 C98.3594316,46.493816 103.600274,48.260296 107.715642,48.260296 L107.715642,39.655096 L47.6108,39.655096 L47.6108,48.430696 C57.5979579,48.430696 56.9101684,48.260296 57.0806947,60.307576 C57.0806947,60.307576 59.1497474,71.315416 51.0554316,71.315416 C43.3021684,71.667576 44.3366947,67.015656 43.9899579,41.546536 C43.7739579,25.534616 43.4726947,7.989096 56.4270105,9.000136 C70.3305895,9.681736 78.0213263,20.462376 82.1878526,29.362936 L92.4535368,29.362936 L91.1632211,2.507896 Z"/>
      <path stroke="#FEFEFE" stroke-width="2" d="M91.1632211,2.507896 L81.9604842,2.428376 C80.5962737,4.399336 79.0785895,6.120376 78.1691158,6.194216 C75.7419579,6.398696 74.0253263,4.785576 70.4272211,3.388296 C66.8234316,1.996696 61.8213263,0.979976 53.3518526,0.610776 C25.7379579,-0.621784 0.244273684,17.003256 0.4148,41.023976 C0.585326316,65.118536 19.7070105,76.995416 45.3712211,79.579816 C52.5333263,80.301176 64.0324842,78.443816 73.7865895,72.519576 C79.3002737,70.980296 85.5017474,77.864456 85.5017474,77.864456 L95.4889053,77.864456 C95.4889053,71.315416 94.6305895,54.281096 96.3529053,51.867096 C98.3594316,46.493816 103.600274,48.260296 107.715642,48.260296 L107.715642,39.655096 L47.6108,39.655096 L47.6108,48.430696 C57.5979579,48.430696 56.9101684,48.260296 57.0806947,60.307576 C57.0806947,60.307576 59.1497474,71.315416 51.0554316,71.315416 C43.3021684,71.667576 44.3366947,67.015656 43.9899579,41.546536 C43.7739579,25.534616 43.4726947,7.989096 56.4270105,9.000136 C70.3305895,9.681736 78.0213263,20.462376 82.1878526,29.362936 L92.4535368,29.362936 L91.1632211,2.507896 Z"/>
      <path fill="#002E78" stroke="#979797" d="M234.312105,68.449288 L251.432947,68.449288 L251.432947,87.511368 C251.432947,94.003608 251.432947,94.003608 245.532737,94.003608 L245.532737,103.256328 L300.840105,103.256328 L300.840105,94.003608 C287.658421,94.003608 287.658421,94.003608 287.658421,81.416728 L287.658421,47.399208 C287.658421,37.998808 286.095263,35.658648 300.840105,35.658648 L300.908316,27.587368 L245.561158,27.496488 L245.532737,35.658648 C251.404526,35.658648 251.432947,35.658648 251.432947,41.304568 L251.432947,59.582808 L234.312105,59.582808 L234.312105,41.883928 C234.312105,35.658648 234.312105,35.658648 240.405579,35.658648 L240.405579,27.496488 L185.172105,27.587368 L185.109579,35.658648 C199.848737,35.658648 197.745579,37.998808 197.745579,47.399208 L197.745579,81.416728 C197.745579,94.003608 197.745579,94.003608 184.904947,94.003608 L184.904947,103.256328 L240.405579,103.256328 L240.405579,94.003608 C234.312105,94.003608 234.312105,94.003608 234.312105,87.511368 L234.312105,68.449288 Z"/>
      <path stroke="#FEFEFE" stroke-width="2" d="M234.312105,68.449288 L251.432947,68.449288 L251.432947,87.511368 C251.432947,94.003608 251.432947,94.003608 245.532737,94.003608 L245.532737,103.256328 L300.840105,103.256328 L300.840105,94.003608 C287.658421,94.003608 287.658421,94.003608 287.658421,81.416728 L287.658421,47.399208 C287.658421,37.998808 286.095263,35.658648 300.840105,35.658648 L300.908316,27.587368 L245.561158,27.496488 L245.532737,35.658648 C251.404526,35.658648 251.432947,35.658648 251.432947,41.304568 L251.432947,59.582808 L234.312105,59.582808 L234.312105,41.883928 C234.312105,35.658648 234.312105,35.658648 240.405579,35.658648 L240.405579,27.496488 L185.172105,27.587368 L185.109579,35.658648 C199.848737,35.658648 197.745579,37.998808 197.745579,47.399208 L197.745579,81.416728 C197.745579,94.003608 197.745579,94.003608 184.904947,94.003608 L184.904947,103.256328 L240.405579,103.256328 L240.405579,94.003608 C234.312105,94.003608 234.312105,94.003608 234.312105,87.511368 L234.312105,68.449288 Z"/>
      <path fill="#002E78" d="M392.4764,107.976408 C392.158084,120.983608 392.158084,120.983608 378.771768,120.983608 L378.771768,129.844408 L429.389663,129.844408 C475.954716,129.844408 484.668611,107.976408 484.668611,91.720248 C484.668611,73.549928 476.642505,51.863688 429.389663,53.408648 L378.771768,53.408648 L378.771768,62.422808 C392.158084,62.422808 392.158084,62.422808 392.158084,74.765448 L392.4764,107.976408 Z M429.588611,68.631048 C429.389663,63.916648 430.606084,62.422808 434.897663,62.422808 C442.815768,63.916648 443.878716,75.197128 443.946926,91.850888 C444.003768,107.976408 443.878716,119.785128 434.897663,120.773448 C430.736821,120.563288 429.588611,119.364808 429.588611,115.065048 L429.588611,68.631048 Z"/>
      <path stroke="#FEFEFE" stroke-width="2" d="M392.4764,107.976408 C392.158084,120.983608 392.158084,120.983608 378.771768,120.983608 L378.771768,129.844408 L429.389663,129.844408 C475.954716,129.844408 484.668611,107.976408 484.668611,91.720248 C484.668611,73.549928 476.642505,51.863688 429.389663,53.408648 L378.771768,53.408648 L378.771768,62.422808 C392.158084,62.422808 392.158084,62.422808 392.158084,74.765448 L392.4764,107.976408 Z M429.588611,68.631048 C429.389663,63.916648 430.606084,62.422808 434.897663,62.422808 C442.815768,63.916648 443.878716,75.197128 443.946926,91.850888 C444.003768,107.976408 443.878716,119.785128 434.897663,120.773448 C430.736821,120.563288 429.588611,119.364808 429.588611,115.065048 L429.588611,68.631048 Z"/>
    </g>
    <path fill="#008D88" d="M5.61770526,281.29568 L21.9882316,281.29568 L21.9882316,245.73888 L54.1665474,245.73888 L54.1665474,281.29568 L70.5370737,281.29568 L70.5370737,199.9524 L54.1665474,199.9524 L54.1665474,231.9876 L21.9882316,231.9876 L21.9882316,199.9524 L5.61770526,199.9524 L5.61770526,281.29568 Z M161.035389,281.29568 L128.402337,199.9524 L111.008653,199.9524 L79.2907579,281.29568 L96.7981263,281.29568 L103.505495,262.89248 L136.013495,262.89248 L143.0676,281.29568 L161.035389,281.29568 Z M108.5076,249.14688 L119.534968,218.92928 L130.789705,249.14688 L108.5076,249.14688 Z M169.783389,281.29568 L186.1596,281.29568 L186.1596,247.33496 L189.456442,247.33496 C200.483811,247.33496 201.506968,248.91968 211.397495,263.57408 L223.220653,281.29568 L242.888021,281.29568 L232.997495,265.39168 C224.812232,252.32768 221.629074,249.37408 214.808021,245.51168 L214.808021,245.28448 C217.985495,244.94936 221.060653,244.03488 223.902758,242.78528 C231.860653,239.49088 236.294337,231.6468 236.294337,222.786 C236.294337,214.834 232.429074,205.5188 222.993284,201.9972 C220.492232,201.202 216.513284,199.9524 204.349074,199.9524 L169.783389,199.9524 L169.783389,281.29568 Z M186.1596,213.70368 L199.000232,213.70368 C210.033284,213.70368 212.0796,213.70368 215.143389,215.5156 C218.218547,217.3332 219.355389,220.514 219.355389,223.8084 C219.355389,226.194 218.786968,231.4196 213.102758,233.35648 C210.260653,234.3732 203.325916,234.3732 198.323811,234.3732 L186.1596,234.3732 L186.1596,213.70368 Z M267.000442,281.29568 L283.376653,281.29568 L283.376653,213.70368 L307.472021,213.70368 L307.472021,199.9524 L242.899389,199.9524 L242.899389,213.70368 L267.000442,213.70368 L267.000442,281.29568 Z M317.936653,281.29568 L333.170337,281.29568 L333.170337,217.2196 L333.397705,217.2196 L349.432863,281.29568 L365.234968,281.29568 L381.037074,217.2196 L381.264442,217.2196 L381.264442,281.29568 L396.498126,281.29568 L396.498126,199.9524 L371.828653,199.9524 L357.390758,255.39488 L357.163389,255.39488 L342.498126,199.9524 L317.936653,199.9524 L317.936653,281.29568 Z M486.428021,281.29568 L453.800653,199.9524 L436.401284,199.9524 L404.683389,281.29568 L422.190758,281.29568 L428.898126,262.89248 L461.417495,262.89248 L468.465916,281.29568 L486.428021,281.29568 Z M433.905916,249.14688 L444.933284,218.92928 L456.188021,249.14688 L433.905916,249.14688 Z M495.522758,281.29568 L510.756442,281.29568 L510.756442,228.2388 L510.983811,228.2388 L543.503179,281.29568 L559.981705,281.29568 L559.981705,199.9524 L544.753705,199.9524 L544.753705,254.25888 L544.526337,254.25888 L511.432863,199.9524 L495.522758,199.9524 L495.522758,281.29568 Z M577.608442,281.29568 L592.842126,281.29568 L592.842126,228.2388 L593.069495,228.2388 L625.583179,281.29568 L642.073074,281.29568 L642.073074,199.9524 L626.833705,199.9524 L626.833705,254.25888 L626.606337,254.25888 L593.524232,199.9524 L577.608442,199.9524 L577.608442,281.29568 Z"/>
  </g>
</svg>
